<svg xmlns="http://www.w3.org/2000/svg" width="600" height="400" viewBox="0 0 600 400" role="img" aria-label="Dairy and eggs">
  <defs>
    <linearGradient id="bg" x1="0" y1="0" x2="1" y2="1">
      <stop offset="0" stop-color="#F7F7F3"/><stop offset="1" stop-color="#E3F0F2"/>
    </linearGradient>
  </defs>
  <rect width="600" height="400" fill="url(#bg)"/>
  <circle cx="300" cy="185" r="125" fill="#FFFFFF" opacity="0.5"/>
  <ellipse cx="300" cy="322" rx="150" ry="18" fill="#5F6B14" opacity="0.10"/>

  <!-- milk bottle -->
  <g transform="translate(255 190)">
    <path d="M-20 -80 L -20 -48 C -34 -34, -38 -20, -38 0 L -38 74 C -38 82, -32 88, -24 88 L 24 88 C 32 88, 38 82, 38 74 L 38 0 C 38 -20, 34 -34, 20 -48 L 20 -80 Z" fill="#FFFFFF"/>
    <path d="M-20 -80 L 20 -80 L 20 -58 L -20 -58 Z" fill="#EDF3F4"/>
    <rect x="-38" y="6" width="76" height="26" rx="6" fill="#9CC3D8"/>
    <ellipse cx="-14" cy="-18" rx="8" ry="12" fill="#F4F9FA"/>
  </g>

  <!-- cheese wedge -->
  <g transform="translate(368 238)">
    <path d="M-58 34 L 62 34 L 62 12 C 62 -34, 20 -62, -14 -62 C -46 -62, -62 -30, -58 34 Z" fill="#F6C453"/>
    <circle cx="18" cy="6" r="9" fill="#E8AE33"/>
    <circle cx="42" cy="20" r="6" fill="#E8AE33"/>
    <circle cx="-6" cy="24" r="7" fill="#E8AE33"/>
    <ellipse cx="-30" cy="-38" rx="14" ry="8" fill="#FFFFFF" opacity="0.4" transform="rotate(-24 -30 -38)"/>
  </g>

  <!-- eggs -->
  <g transform="translate(300 300)">
    <ellipse cx="-20" cy="0" rx="17" ry="22" fill="#F5E8D8"/>
    <ellipse cx="18" cy="4" rx="16" ry="21" fill="#EFE0CB"/>
    <ellipse cx="-2" cy="-4" rx="16" ry="21" fill="#FBF3E8"/>
  </g>
</svg>
